<svg width="40" height="40" viewBox="0 0 40 40" fill="none" xmlns="http://www.w3.org/2000/svg">
<g filter="url(#filter0_d_2_30)">
<circle cx="20" cy="16" r="16" fill="white"/>
<path d="M28 11.4206C27.405 11.6615 26.771 11.8212 26.11 11.8988C26.79 11.524 27.309 10.9351 27.553 10.2252C26.919 10.5742 26.219 10.8206 25.473 10.9582C24.871 10.3665 24.013 10 23.077 10C21.261 10 19.799 11.3606 19.799 13.0286C19.799 13.2686 19.821 13.4994 19.875 13.7191C17.148 13.5963 14.735 12.3898 13.114 10.552C12.831 11.0052 12.665 11.524 12.665 12.0825C12.665 13.1311 13.25 14.0606 14.122 14.5988C13.595 14.5895 13.078 14.4483 12.64 14.2258C12.64 14.2351 12.64 14.2471 12.64 14.2591C12.64 15.7305 13.777 16.9526 15.268 17.2342C15.001 17.3015 14.71 17.3338 14.408 17.3338C14.198 17.3338 13.986 17.3228 13.787 17.2822C14.212 18.4812 15.418 19.3628 16.852 19.3914C15.736 20.1972 14.319 20.6828 12.785 20.6828C12.516 20.6828 12.258 20.6717 12 20.6412C13.453 21.5062 15.175 22 17.032 22C23.068 22 26.368 17.3846 26.368 13.384C26.368 13.2502 26.363 13.1209 26.356 12.9926C27.007 12.5662 27.554 12.0335 28 11.4206Z" fill="#2E80CE"/>
</g>
<defs>
<filter id="filter0_d_2_30" x="0" y="0" width="40" height="40" filterUnits="userSpaceOnUse" color-interpolation-filters="sRGB">
<feFlood flood-opacity="0" result="BackgroundImageFix"/>
<feColorMatrix in="SourceAlpha" type="matrix" values="0 0 0 0 0 0 0 0 0 0 0 0 0 0 0 0 0 0 127 0" result="hardAlpha"/>
<feOffset dy="4"/>
<feGaussianBlur stdDeviation="2"/>
<feComposite in2="hardAlpha" operator="out"/>
<feColorMatrix type="matrix" values="0 0 0 0 0 0 0 0 0 0 0 0 0 0 0 0 0 0 0.25 0"/>
<feBlend mode="normal" in2="BackgroundImageFix" result="effect1_dropShadow_2_30"/>
<feBlend mode="normal" in="SourceGraphic" in2="effect1_dropShadow_2_30" result="shape"/>
</filter>
</defs>
</svg>
